<svg version="1.1" id="Layer_2_1_" xmlns="http://www.w3.org/2000/svg" xmlns:xlink="http://www.w3.org/1999/xlink" x="0px" y="0px" viewBox="0 0 500 500" style="enable-background:new 0 0 500 500;" xml:space="preserve">
	<g>
		<path fill="#111113" d="M39.6,181.7c-15.3,18-23,41-23,68.7c0,29.9,7.6,54,22.8,72.4c15.2,18.3,35,27.5,59.4,27.5c7.1,0,15-1.4,24-4.3v-44.1 c-8,2.8-15,4.2-20.9,4.2c-12.2,0-21.9-4.9-29.2-14.6s-10.9-22.9-10.9-39.6c0-15.5,3.6-28.3,10.9-38.3s16.3-15,27.3-15 c7.2,0,14.7,1.3,22.8,4v-44.3c-7.6-2.4-16-3.6-25.1-3.6C74.3,154.7,54.9,163.7,39.6,181.7"/>
		<polygon fill="#111113" points="220,159.8 220,345.7 305.6,345.7 305.6,306.1 262.2,306.1 262.2,272.1 299.7,272.1 299.7,233.6 262.2,233.6 262.2,199.4 305.4,199.4 305.4,159.8 	"/>
		<polygon fill="#111113" points="438,159.8 438,228.7 400.6,228.7 400.6,159.8 358.4,159.8 358.4,345.7 400.6,345.7 400.6,268.4 438,268.4 438,345.7 480.2,345.7 480.2,159.8 	"/>
		<rect fill="#ffad00" x="165.4" y="57.9" class="st0" width="16.3" height="384.3"/>
	</g>
</svg>